PathFileType	4	(X/Y/Z)	/home/abdul/Desktop/myosuite/custom_workspace/IK/output/S5_12_3.trc
DataRate	CameraRate	NumFrames	NumMarkers	Units	OrigDataRate	OrigDataStartFrame	OrigNumFrames
200.0	200.0	51	3	mm	200.0	676	1350
Frame#	Time	V_Shoulder			V_Elbow			V_Wrist		
		X1	Y1	Z1	X2	Y2	Z2	X3	Y3	Z3

676	3.375	2.641496087350764	748.510648975244	254.3624566893882	-72.01502913269135	482.25671689972745	136.5639269022787	56.949574440019525	564.476045648222	319.6242874820063
677	3.38	2.6388868403879018	748.4977637140915	254.36466005618476	-72.05185584546619	482.305414641332	136.35768822717796	56.87356464030107	564.2269650573899	319.56517688717946
678	3.385	2.6358646957617813	748.48566637693	254.36661208927808	-72.09288016995689	482.35599789775335	136.14682689556497	56.79457367774995	563.9778413581828	319.50558408300947
679	3.39	2.6324364812864576	748.4743881670697	254.36831122054596	-72.13830479112059	482.40866466070577	135.9310897082831	56.71254244813434	563.7287890702344	319.4454280099019
680	3.395	2.628609740724452	748.4639598387357	254.36975642804705	-72.18834579004707	482.4636257920465	135.71021826600105	56.627409100510036	563.4799003820663	319.3846219168279
681	3.4	2.624392723734102	748.4544116237224	254.37094726826936	-72.24323258503797	482.52110506575684	135.4839494493968	56.53910886145762	563.231243651136	319.3230730955889
682	3.405	2.6197943744449703	748.4457731561359	254.37188390703727	-72.30320780969798	482.581339168246	135.25201592177945	56.44757385280093	562.98286194158	319.2606825984525
683	3.41	2.614824318680339	748.4380733953252	254.37256714893851	-72.36852712656706	482.64457765523014	135.01414665358635	56.352732903413454	562.7347716056286	319.1973449392931
684	3.415	2.6094928498475602	748.4313405471058	254.37299846513747	-72.43945897510001	482.71108286353376	134.77006746815385	56.25451135580146	562.4869609146323	319.1329477785006
685	3.42	2.6038109135187404	748.4256019833998	254.37318001944433	-72.51628425308601	482.7811297762685	134.51950160812146	56.152830868233124	562.2393887455723	319.0673715920538
686	3.425	2.5977900907259572	748.4208841604062	254.37311469251472	-72.59929593089993	482.85500583996424	134.26217032178846	56.047609213262234	561.9919833288357	319.000489325295
687	3.43	2.5914425799968903	748.4172125354426	254.37280610405992	-72.68879859828344	482.9330107323523	133.99779346870037	55.938760073572816	561.7446410629302	318.93216603208526
688	3.435	2.584781178158391	748.4146114825926	254.3722586329529	-72.78510794366971	483.015456079639	133.72609014369792	55.82619283614514	561.4972254016839	318.8622585001652
689	3.44	2.5778192599372054	748.4131042073076	254.37147743512188	-72.88855016638529	483.10266512225564	133.4467793186146	55.70981238581566	561.249565819317	318.79061486369403
690	3.445	2.57057075638866	748.4127126601194	254.37046845912892	-72.99946132238846	483.1949723282239	133.15958050076154	55.58951889937135	561.0014568586076	318.71707420409047
691	3.45	2.563050132185766	748.4134574496235	254.36923845933856	-73.11818660453115	483.2927229534462	132.8642144072856	55.46520764138222	560.7526572671788	318.6414661404474
692	3.455	2.5552723618027864	748.4153577549051	254.3677950065879	-73.24507955866011	483.39627254839763	132.56040365443403	55.33676876303548	560.5028892267228	318.5636104109455
693	3.46	2.547252904628952	748.4184312375834	254.36614649627816	-73.3805012372012	483.5059864108839	132.24787346070136	55.20408710528845	560.2518376797509	318.4833164468372
694	3.465	2.539007679049526	748.4226939536571	254.3643021538146	-73.5248192921964	483.62223898471535	131.92635236277582	55.06704200770558	559.9991497582087	318.40038294072156
695	3.47	2.5305530355330736	748.4281602653442	254.36227203732946	-73.67840701008396	483.74541320434525	131.59557294313947	54.925507124387735	559.7444343180335	318.31459741097405
696	3.475	2.5219057287652897	748.4348427531112	254.360067037633	-73.84164229082845	483.8758997857233	131.25527256811262	54.77935024843744	559.4872615834538	318.22573576433643
697	3.48	2.5130828888713546	748.4427521280945	254.3576988753441	-74.01490657431364	484.0140964638244	130.9051941350639	54.62843314643354	559.2271629045309	318.133561858808
698	3.485	2.5041019917702596	748.4518971451254	254.35518009516235	-74.19858371721033	484.1604071775274	130.5450868274389	54.47261140441077	558.9636306311425	318.0378270691085
699	3.49	2.494980828706139	748.462284516571	254.35252405725075	-74.39305882381741	484.31524120273696	130.17470687618749	54.31173428685499	558.6961181062813	317.9382698571089
700	3.495	2.4857374750030927	748.4739188272124	254.34974492571072	-74.59871703464914	484.47901223486394	129.79381832609616	54.14564461023265	558.4240397812143	317.83461534973804
701	3.5	2.476390258091554	748.4868024503863	254.34685765413587	-74.8159422768008	484.65213742200706	129.40219380545477	53.97417863257293	558.1467714547014	317.72657492698636
702	3.505	2.466957724855688	748.5009354656177	254.34387796824436	-75.04511598036899	484.83503635040483	128.99961529741162	53.797165960613754	557.8636506381229	317.61384582272115
703	3.51	2.4574586083528263	748.5163155779804	254.3408223455966	-75.28661576542954	485.0281299839574	128.5858749112918	53.61442947600695	557.5739770480058	317.4961107411185
704	3.515	2.4479117939573487	748.5329380394227	254.33770799241566	-75.54081410428336	485.2318395598479	128.16077565207559	53.42578528205528	557.2770132270687	317.37303749159344
705	3.52	2.4383362849829124	748.5507955722973	254.33455281753777	-75.80807696386884	485.4465854425206	127.72413218615574	53.23104267242269	556.9719852945334	317.2442786451737
706	3.525	2.428751167838301	748.5698782953427	254.33137540352791	-76.08876243340575	485.6727859385019	127.27577160141496	53.03000412322059	556.658083826074	317.10947121531586
707	3.53	2.41917557677361	748.5901736523605	254.32819497500677	-76.3832193424801	485.9108560747784	126.81553415958903	52.82246530982685	556.3344648633921	316.96823636620076
708	3.535	2.4096286582748054	748.6116663438379	254.32503136424373	-76.69178587490046	486.16120634366365	126.34327403880684	52.608215149740246	556.0002510530213	316.82017915157206
709	3.54	2.4001295351660974	748.6343382617666	254.3219049740804	-77.01478818375335	486.4242414173074	125.85886006412728	52.387035872712445	555.6545329135798	316.6648882871885
710	3.545	2.390697270480802	748.6581684279055	254.31883673825686	-77.35253901315791	486.70035883521007	125.36217642382582	52.15870311933152	555.2963702303043	316.50193595995916
711	3.55	2.381350831162719	748.6831329357428	254.31584807922354	-77.70533633226682	486.98994766831316	124.85312336911917	51.922986069156	554.9247935753119	316.3308776768089
712	3.555	2.3721090516612136	748.7092048964023	254.31296086352873	-78.0734619870816	487.2933871634343	124.33161789495881	51.679647599417784	554.5388059516516	316.1512521562853
713	3.56	2.3629905974844334	748.7363543887501	254.3101973548813	-78.45718037564569	487.61104537200293	123.79759439947028	51.42844447522412	554.1373845588307	315.96258126586633
714	3.565	2.3540139287761956	748.7645484139431	254.30758016499507	-78.85673715214723	487.94327776723605	123.25100531957033	51.169127572096464	553.7194826771162	315.7643700078578
715	3.57	2.34519726398316	748.7937508546689	254.30513220233078	-79.2723579654062	488.2904258540593	122.69182174025342	50.901442131584716	553.2840316675456	315.55610655668585
716	3.575	2.3365585436799385	748.8239224393196	254.30287661885745	-79.70424723713623	488.6528157762376	122.12003397501037	50.62512805059197	552.829943084208	315.3372623502847
717	3.58	2.328115394620724	748.8550207113354	254.30083675496363	-80.15258698526222	489.03075692532275	121.53565211481833	50.33992020493632	552.3561108949976	315.10729223816384
718	3.585	2.3198850940869264	748.8870000039554	254.2990360826548	-80.617535697439	489.4245405561584	120.93870654313027	50.04554880756373	551.8614138066829	314.8656346886024
719	3.59	2.311884534601074	748.9198114206029	254.2974981471797	-81.09922725975541	489.83443841379517	120.32924841429	49.74173980170917	551.3447176897932	314.61171205726544
720	3.595	2.304130189077992	748.9534028211284	254.29624650723602	-81.59776994542416	490.2607013767717	119.70735009280753	49.42821528918329	550.8048780984791	314.3449309193718
721	3.6	2.296638076484854	748.9877188141285	254.2953046739085	-82.11324546804784	490.70355812179946	119.07310555095088	49.10469399383892	550.2407428801745	314.0646824673589
722	3.605	2.2894237280822662	749.0227007555453	254.29469604850138	-82.64570810382119	491.1632138149549	118.42663072214383	48.77089176014579	549.6511548695703	313.77034297579104
723	3.61	2.2825021543189092	749.0582867537511	254.2944438594286	-83.19518388677625	491.6398488345302	117.76806380770421	48.42652208667378	549.0349546610952	313.46127433504586
724	3.615	2.2758878124525785	749.0944116813076	254.2945710983313	-83.76166988090309	492.13361753072314	117.09756553451771	48.0712966941554	548.3909834537997	313.13682465508924
725	3.62	2.2695945749706286	749.131007193579	254.2951004555961	-84.34513353268666	492.64464702735427	116.41531936131432	47.704926127666525	547.7180859622545	312.79632894040606
726	3.625	2.263635698882861	749.1680017543723	254.29605425544926	-84.94551210728928	493.1730360707868	115.7215316313018	47.327120392332084	547.0151133867942	312.4391098369057
